
<svg width="331" height="319" viewBox="0 0 331 319" fill="none" xmlns="http://www.w3.org/2000/svg">
<path fill-rule="evenodd" clip-rule="evenodd" d="M111.463 0.866688L110.647 0.70752L110.099 1.33238L0.966295 125.77L0.415039 126.399L0.684912 127.19L54.5858 285.233L54.8551 286.023L55.6734 286.185L218.707 318.459L219.526 318.621L220.076 317.992L329.541 192.889L330.09 192.262L329.822 191.472L276.254 33.7619L275.984 32.9685L275.162 32.808L111.463 0.866688ZM110.629 5.11273L3.69133 127.048L56.5383 282.001L163.78 159.673L110.629 5.11273ZM58.7632 283.849L218.45 315.46L325.91 192.648L165.959 161.573L58.7632 283.849ZM326.186 189.756L273.786 35.4853L113.368 4.1842L166.515 158.736L326.186 189.756Z" fill="#065AF1"/>
</svg>
